<?xml version="1.0" ?><svg viewBox="0 0 64 64" xmlns="http://www.w3.org/2000/svg"><path d="M34.084 64c-26.192 0-26.978-.316-27.314-.45-1.89-.76-1.89-.76-2.27-17.177-.164-6.99-.348-14.913-.625-18.262-.37-4.47-1.038-8.22-1.437-10.46-.408-2.284-.505-2.827-.056-3.727.076-.152.163-.3.274-.448-.363-.848-.63-1.89-.654-3.132-.038-2.052.83-4.237 2.26-5.703 1.173-1.2 2.674-1.858 4.228-1.858.387 0 .772.04 1.156.117.9-.86 2.19-1.848 3.777-2.39.92-.316 1.86-.476 2.79-.476 1.147 0 2.136.242 2.88.554C19.837.258 20.773 0 21.89 0c.22 0 .447.01.683.032 1.417.132 2.46.59 3.187 1.036.73-.27 1.717-.52 2.945-.52.417 0 .847.03 1.278.087 1.575.21 2.603.676 3.3 1.2.563-.09 1.237-.17 1.924-.17.805 0 1.503.104 2.137.316.706.238 1.26.528 1.695.83.583-.132 1.273-.237 2.025-.237 2.318 0 4.272.967 5.653 2.796 1.462 1.94 1.863 3.88 1.77 5.5 1.108.59 1.73 1.415 1.883 2.49.052.357.067 1.012.06 1.784h.145c7.202 0 11.2 1.793 11.888 5.33.902 4.64.58 16.903-.316 23.686-1.177 8.903-3.168 10.708-4.563 11.29-.682.287-1.24.323-5.437.358-.614.005-1.362.012-2.055.022.008 5.36-.03 5.617-.255 6.22C49.112 63.992 49.11 64 34.24 64h-.156zm15.752-34.157c-.052 3.37.033 9.873.122 13.41l.166-.025c.123-.776.257-1.923.337-3.316.15-2.646.11-7.843-.155-10.013-.14-.023-.297-.04-.47-.057z" fill="#FFF"/><path d="M8.864 11.254c.564.123.956-.172.907-.665-.048-.494-.51-.61-.833-.42-.417.247-.637.96-.073 1.084zm4.463-.542c.564.123.956-.172.907-.665-.05-.493-.512-.61-.834-.42-.417.247-.637.962-.073 1.085zm1.863-4.017c.564.123.956-.173.907-.665-.05-.493-.512-.61-.834-.42-.416.248-.637.962-.073 1.085zm5.395 1.602c.564.123.956-.173.907-.665-.05-.493-.512-.61-.834-.42-.416.247-.637.962-.073 1.085zm-2.918 3.056c.564.123.956-.173.907-.665-.05-.493-.512-.61-.834-.42-.416.247-.637.962-.073 1.085zm4.806.42c.564.122.956-.173.907-.666-.05-.493-.512-.61-.834-.42-.416.247-.637.962-.073 1.085zM26.74 8.1c.564.123.956-.173.907-.665-.05-.493-.512-.61-.834-.42-.416.247-.637.962-.073 1.085zm.22 2.49c-.416.245-.637.96-.073 1.083.564.123.956-.173.907-.665-.05-.493-.512-.61-.833-.42zm7.602.862c.564.123.956-.173.907-.665-.05-.493-.513-.61-.835-.42-.416.247-.637.96-.073 1.085zm.123-3.13c.564.123.956-.173.907-.665-.05-.493-.512-.61-.834-.42-.417.247-.637.962-.073 1.085zm5.002 2.908c.564.123.956-.173.907-.665-.05-.493-.512-.61-.834-.42-.416.247-.637.962-.073 1.085zm-22.952 6.826c.074 0 .05-1.035-.123-1.257-.172-.223-2.28-.272-3.825-.05s-3.384.768-3.384.912c0 .197.147 1.11.245 1.208.098.1 1.3-.173 2.722-.59 1.423-.42 4.292-.224 4.365-.224zm-5.05 3.03c-.173.272-.344 3.747-.197 6.507.147 2.76 2.035 24.372 2.11 24.94.073.566 1.053 1.872 2.893 1.625 1.84-.246 2.208-1.553 2.355-3.573.147-2.02 0-29.45-.907-29.868-.91-.42-5.806-.338-6.254.37zm6.08 22.205c-.074 6.04-.147 9.316-1.643 9.415-1.496.1-1.447-1.33-1.643-5.1-.197-3.77-1.006-15.304-1.276-18.63-.27-3.328-.392-6.876-.245-7.074.262-.352 3.97-.37 4.07-.172.097.197.81 15.525.735 21.563zm9.073-23.534c-1.447 0-3.64.29-3.8.715-.663 1.75.024 24.84.146 26.887.123 2.045.172 6.21 3.237 6.087 3.066-.123 3.115-2.514 3.31-5.47.197-2.958.222-27.158.148-27.454-.073-.295-1.593-.764-3.04-.764zM28.334 49.5c-.024.69-.98 2.293-2.01 2.244-1.03-.05-1.52-1.035-1.644-2.415-.123-1.38-.98-27.158-.22-27.97.227-.245 3.702-.223 3.922.024.22.245-.024 27.427-.048 28.117zm4.512-29.423c-.368.296.05 27.7.22 29.597.173 1.897.786 3.968 2.87 3.894 2.084-.074 2.894-1.602 3.14-3.696.244-2.095.735-29.67.44-29.892-.295-.224-6.41-.113-6.67.097zm4.83 29.966c-.22 1.207-.71 1.873-1.692 1.824-.98-.05-1.3-.616-1.373-2.17-.073-1.552-.44-28.117-.195-28.487.238-.358 3.482-.296 3.654-.173.17.124-.173 27.798-.394 29.006zM59.844 20.99c-.785-4.043-12.163-3.057-12.163-3.057s.148-3.5.05-4.19c-.098-.69-2.452-1.083-2.452-1.083s1.618-2.612-.687-5.668c-2.304-3.056-6.13-1.134-6.276-1.183-.147-.05-.343-.79-1.815-1.283-1.472-.493-3.826.197-4.12.197s-.148-1.084-2.747-1.43c-2.6-.344-3.874.84-4.17.84s-1.03-1.233-3.138-1.43c-2.11-.197-3.286 1.084-3.286 1.084s-.295-.296-.54-.493c-.245-.197-1.913-1.035-4.218-.247-2.305.79-3.874 3.007-3.874 3.007-3.335-2.02-5.787 1.577-5.738 4.24.05 2.66 1.717 3.893 1.717 3.893s-1.47.64-1.618.936c-.148.296 1.176 5.668 1.765 12.765.59 7.096.736 32.972 1.226 33.17.49.196 39.432.443 39.58.048.146-.394.048-7.492.097-7.787.05-.295 8.534-.098 9.122-.344.588-.246 2.01-2.12 2.942-9.167.93-7.05 1.126-18.78.342-22.82zM5.897 10.342c0-1.48.956-3.18 2.28-3.5 1.324-.32 1.962.617 1.962.617s-.197 1.232.073 1.405c.27.173 1.103.1 1.103 0s-.147-1.01.638-2.242 1.913-2.045 3.556-2.415c1.643-.37 2.82.42 2.746.665-.074.246-1.667 2.17-1.57 2.415.1.246.884.296 1.03.197.148-.1 2.282-2.76 2.747-3.056.466-.297 1.717-.52 2.624-.15s1.35 1.01 1.275 1.16c-.074.147-.932 2.02-.834 2.143.098.123 1.054.296 1.128.123.074-.173.343-2.12 2.55-2.71 2.207-.593 3.997.393 4.267.812.27.42.343.567.27.69-.074.123-.564 1.257-.49 1.33s1.03.198 1.103.05c.074-.148 1.005-1.848 1.496-1.97.49-.124 3.335-.026 3.31.763s-.123 1.258.123 1.332c.245.074.71.1.858.025.147-.074 1.152-1.405 3.114-1.355 1.962.05 3.04 2.17 3.114 3.228.075 1.06-.17 2.17-.465 2.366-.294.197-20.55.197-26.263.468-5.713.27-9.44.813-9.833.764-.276-.036-1.913-1.677-1.913-3.155zm37.42 35.215c.195.27 1.47 1.65 1.47 1.922s.245 2.34.05 2.17c-.197-.174-2.06-2.54-2.232-2.515-.172.025-.515 1.084-.343 1.257.172.172 2.575 2.44 2.575 2.71 0 .272.074 2.465 0 2.465s-2.82-4.04-3.065-4.017c-.245.025-.736.986-.59 1.232.148.246 3.753 4.756 3.826 5.126.074.37.098 2.834 0 2.735-.098-.1-3.433-5.224-3.727-5.224-.293 0-.588.738-.44.96s3.188 4.41 2.992 4.436c-.196.025-1.103.148-1.177.025-.074-.122-2.256-3.3-2.477-3.35-.22-.05-.932.345-.858.444.074.1 2.035 2.883 1.815 2.908-.22.025-1.447-.025-1.447-.025s-1.545-2.218-1.864-2.292c-.32-.074-1.054.394-1.005.542.048.148 1.765 1.8 1.397 1.922-.368.122-15.865.22-19.47.32-3.605.098-8.288-.124-8.435-.124s-.025-8.255-.123-13.406-1.155-16.437-1.62-21.686c-.467-5.25-.81-7.763-.712-7.935 0 0 2.256-.666 6.106-1.036s23.76-.74 25.993-.665c2.23.073 5.1.295 5.2.517.097.222-.173 30.656-.246 30.607-.073-.05-.955-.936-1.102-.936-.148-.002-.688.64-.492.91zm14.467-7.516c-.172 3.327-1.986 12.124-2.526 12.37-.54.247-7.87.642-7.87.223 0-.42-.32-2.07-.05-2.095.27-.025 4.463.345 6.13-1.33 1.668-1.677 1.79-5.743 2.084-9.957.294-4.214.245-7.023-.196-8.847-.44-1.824-1.815-2.686-2.305-2.834-.49-.148-5.835.27-5.81-.123.023-.395.048-5.84.244-5.84.123 0 8.092-.272 9.44 1.06 1.35 1.33 1.032 14.045.86 17.372zM47.338 27.248c.21-.212 4.414-.296 5.2.69.784.986.735 9.512.588 12.124-.147 2.612-.54 5.175-.883 5.422-.343.246-4.757.986-4.855.345-.1-.642-.442-18.188-.05-18.582zm2.035-6.654c-.098.05-.368 1.208-.294 1.553.073.345 4.168.567 4.34.468s.293-1.577 0-1.774-3.98-.28-4.047-.246z"/></svg>