<?xml version="1.0" encoding="utf-8"?>
<!-- Generator: Adobe Illustrator 16.0.0, SVG Export Plug-In . SVG Version: 6.00 Build 0)  -->
<!DOCTYPE svg PUBLIC "-//W3C//DTD SVG 1.1//EN" "http://www.w3.org/Graphics/SVG/1.1/DTD/svg11.dtd">
<svg version="1.1" id="Layer_1" xmlns="http://www.w3.org/2000/svg" xmlns:xlink="http://www.w3.org/1999/xlink" x="0px" y="0px"
	 width="973.125px" height="1024px" viewBox="0 0 973.125 1024" enable-background="new 0 0 973.125 1024" xml:space="preserve">
<path fill="#231F20" stroke="#000000" stroke-width="5" stroke-miterlimit="10" d="M767.089,716.696L619.475,569.082
	c21.071-34.404,33.848-74.492,33.848-117.84c0-125.635-101.915-227.531-227.531-227.531c-125.635,0-227.531,101.896-227.531,227.531
	c0,125.617,101.896,227.532,227.531,227.532c43.348,0,83.436-12.776,117.84-33.774l147.613,147.54
	c10.37,10.369,27.553,10.295,37.923,0l37.922-37.922C777.458,744.249,777.458,727.065,767.089,716.696z M425.791,602.931
	c-83.769,0-151.688-67.919-151.688-151.688c0-83.769,67.918-151.688,151.688-151.688c83.77,0,151.688,67.919,151.688,151.688
	C577.479,535.012,509.561,602.931,425.791,602.931z"/>
</svg>
